<svg xmlns="http://www.w3.org/2000/svg" viewBox="0 0 64 64">
  <defs>
    <linearGradient id="bg" x1="8" y1="6" x2="56" y2="58" gradientUnits="userSpaceOnUse">
      <stop offset="0" stop-color="#1cc5ff" />
      <stop offset="1" stop-color="#5468ff" />
    </linearGradient>
    <linearGradient id="bubble" x1="20" y1="18" x2="47" y2="44" gradientUnits="userSpaceOnUse">
      <stop offset="0" stop-color="#ffffff" />
      <stop offset="1" stop-color="#def2ff" />
    </linearGradient>
  </defs>
  <rect x="4" y="4" width="56" height="56" rx="16" fill="url(#bg)" />
  <path d="M18 18h28a7 7 0 0 1 7 7v11a7 7 0 0 1-7 7H33.5l-7.7 7.1a2.3 2.3 0 0 1-3.8-1.7V43H18a7 7 0 0 1-7-7V25a7 7 0 0 1 7-7z" fill="url(#bubble)" />
  <circle cx="25.5" cy="32" r="2.6" fill="#2d46cf" />
  <circle cx="32" cy="32" r="2.6" fill="#2d46cf" />
  <circle cx="38.5" cy="32" r="2.6" fill="#2d46cf" />
</svg>
